<svg width="330" height="327" viewBox="0 0 330 327" fill="none" xmlns="http://www.w3.org/2000/svg">
<mask id="path-1-inside-1_322_146" fill="white">
<path d="M285 0C309.853 0 330 20.1472 330 45V257.384C330 282.237 309.843 302.384 284.99 302.384H90.6338L66 326.384L41.2002 302.222C18.1294 300.288 0 280.954 0 257.384V45C4.12327e-06 20.1472 20.1472 2.0619e-06 45 0H285Z"/>
</mask>
<path d="M285 0C309.853 0 330 20.1472 330 45V257.384C330 282.237 309.843 302.384 284.99 302.384H90.6338L66 326.384L41.2002 302.222C18.1294 300.288 0 280.954 0 257.384V45C4.12327e-06 20.1472 20.1472 2.0619e-06 45 0H285Z" fill="#191A23"/>
<path d="M90.6338 302.384V301.384H90.2272L89.936 301.668L90.6338 302.384ZM66 326.384L65.3022 327.1L66 327.78L66.6978 327.1L66 326.384ZM41.2002 302.222L41.898 301.505L41.6411 301.255L41.2837 301.225L41.2002 302.222ZM0 45L-1 45V45H0ZM45 0L45 -1L45 -1L45 0ZM285 0V1C309.301 1 329 20.6995 329 45H330H331C331 19.5949 310.405 -1 285 -1V0ZM330 45H329V257.384H330H331V45H330ZM330 257.384H329C329 281.684 309.291 301.384 284.99 301.384V302.384V303.384C310.395 303.384 331 282.789 331 257.384H330ZM284.99 302.384V301.384H90.6338V302.384V303.384H284.99V302.384ZM90.6338 302.384L89.936 301.668L65.3022 325.668L66 326.384L66.6978 327.1L91.3316 303.1L90.6338 302.384ZM66 326.384L66.6978 325.668L41.898 301.505L41.2002 302.222L40.5024 302.938L65.3022 327.1L66 326.384ZM41.2002 302.222L41.2837 301.225C18.7263 299.334 1 280.429 1 257.384H0H-1C-1 281.478 17.5326 301.241 41.1167 303.218L41.2002 302.222ZM0 257.384H1V45H0H-1V257.384H0ZM0 45L1 45C1 20.6995 20.6995 1 45 1L45 0L45 -1C19.5949 -0.999998 -0.999996 19.5949 -1 45L0 45ZM45 0V1H285V0V-1H45V0Z" fill="#B9FF66" mask="url(#path-1-inside-1_322_146)"/>
</svg>
